<svg width="22" height="22" viewBox="0 0 22 22" fill="none" xmlns="http://www.w3.org/2000/svg">
<path d="M3 11.1631C3 9.33238 3 8.41701 3.41536 7.65818C3.83072 6.89935 4.58956 6.4284 6.10723 5.48649L7.70723 4.49348C9.31151 3.49782 10.1137 2.99998 11 2.99998C11.8863 2.99998 12.6885 3.49782 14.2928 4.49348L15.8928 5.48648C17.4104 6.4284 18.1693 6.89935 18.5846 7.65818C19 8.41701 19 9.33238 19 11.1631V12.3799C19 15.5007 19 17.061 18.0627 18.0305C17.1255 19 15.617 19 12.6 19H9.4C6.38301 19 4.87452 19 3.93726 18.0305C3 17.061 3 15.5007 3 12.3799V11.1631Z" stroke="#5F6573" stroke-width="1.4"/>
<path d="M13.6667 15.7999H8.33334" stroke="#EF6520" stroke-width="1.4" stroke-linecap="round"/>
</svg>
