<svg width="23" height="22" viewBox="0 0 23 22" fill="none" xmlns="http://www.w3.org/2000/svg">
<path d="M12.1961 19.6054L12.7985 19.9619L13.2954 19.1224L12.693 18.7658L12.0906 18.4093L11.5937 19.2488L12.1961 19.6054ZM9.70697 18.7658L9.10458 19.1224L9.60151 19.9619L10.2039 19.6054L10.8062 19.2488L10.3093 18.4093L9.70697 18.7658ZM12.1961 19.6054L11.5937 19.2488C11.4219 19.5392 10.9781 19.5392 10.8062 19.2488L10.2039 19.6054L9.60151 19.9619C10.3154 21.1681 12.0845 21.1681 12.7985 19.9619L12.1961 19.6054ZM9.82503 1.8333V2.5333H12.575V1.8333V1.1333H9.82503V1.8333ZM20.3667 9.62497H19.6667V10.5417H20.3667H21.0667V9.62497H20.3667ZM2.03337 10.5417H2.73337V9.62497H2.03337H1.33337V10.5417H2.03337ZM2.03337 10.5417H1.33337C1.33337 11.5999 1.33299 12.4286 1.3786 13.0971C1.42464 13.7719 1.51987 14.3345 1.73554 14.8552L2.38225 14.5873L3.02897 14.3194C2.89574 13.9978 2.81653 13.6053 2.77535 13.0018C2.73374 12.392 2.73337 11.619 2.73337 10.5417H2.03337ZM7.34048 17.4088L7.35254 16.7089C6.20172 16.6891 5.60087 16.6159 5.13061 16.4211L4.86273 17.0678L4.59485 17.7145C5.33515 18.0211 6.17775 18.0889 7.32842 18.1087L7.34048 17.4088ZM2.38225 14.5873L1.73554 14.8552C2.27176 16.1497 3.30029 17.1783 4.59485 17.7145L4.86273 17.0678L5.13061 16.4211C4.17909 16.0269 3.4231 15.2709 3.02897 14.3194L2.38225 14.5873ZM20.3667 10.5417H19.6667C19.6667 11.619 19.6663 12.392 19.6247 13.0018C19.5835 13.6053 19.5043 13.9978 19.3711 14.3194L20.0178 14.5873L20.6645 14.8552C20.8802 14.3345 20.9754 13.7719 21.0214 13.0971C21.067 12.4286 21.0667 11.5999 21.0667 10.5417H20.3667ZM15.0595 17.4088L15.0716 18.1087C16.2223 18.0889 17.0649 18.0211 17.8052 17.7145L17.5373 17.0678L17.2694 16.4211C16.7992 16.6159 16.1983 16.6891 15.0474 16.7089L15.0595 17.4088ZM20.0178 14.5873L19.3711 14.3194C18.9769 15.2709 18.2209 16.0269 17.2694 16.4211L17.5373 17.0678L17.8052 17.7145C19.0997 17.1783 20.1283 16.1497 20.6645 14.8552L20.0178 14.5873ZM12.575 1.8333V2.5333C14.0889 2.5333 15.1751 2.53404 16.0222 2.61459C16.8589 2.69414 17.3898 2.84658 17.8124 3.10555L18.1781 2.5087L18.5439 1.91185C17.8643 1.49543 17.0939 1.31017 16.1547 1.22087C15.226 1.13256 14.0618 1.1333 12.575 1.1333V1.8333ZM20.3667 9.62497H21.0667C21.0667 8.1382 21.0674 6.97397 20.9791 6.04522C20.8898 5.10605 20.7045 4.33565 20.2881 3.6561L19.6913 4.02185L19.0944 4.3876C19.3534 4.8102 19.5058 5.34104 19.5854 6.17773C19.6659 7.02484 19.6667 8.11109 19.6667 9.62497H20.3667ZM18.1781 2.5087L17.8124 3.10555C18.3349 3.42575 18.7742 3.86508 19.0944 4.3876L19.6913 4.02185L20.2881 3.6561C19.8525 2.9452 19.2548 2.3475 18.5439 1.91185L18.1781 2.5087ZM9.82503 1.8333V1.1333C8.33826 1.1333 7.17403 1.13256 6.24528 1.22087C5.30611 1.31017 4.53571 1.49543 3.85616 1.91185L4.22191 2.5087L4.58766 3.10555C5.01027 2.84658 5.5411 2.69414 6.3778 2.61459C7.2249 2.53404 8.31116 2.5333 9.82503 2.5333V1.8333ZM2.03337 9.62497H2.73337C2.73337 8.11109 2.7341 7.02484 2.81465 6.17773C2.8942 5.34104 3.04664 4.8102 3.30561 4.3876L2.70876 4.02185L2.11192 3.6561C1.69549 4.33565 1.51023 5.10605 1.42093 6.04522C1.33263 6.97397 1.33337 8.1382 1.33337 9.62497H2.03337ZM4.22191 2.5087L3.85616 1.91185C3.14526 2.3475 2.54756 2.9452 2.11192 3.6561L2.70876 4.02185L3.30561 4.3876C3.62582 3.86508 4.06514 3.42575 4.58766 3.10555L4.22191 2.5087ZM9.70697 18.7658L10.3093 18.4093C10.1233 18.0951 9.95965 17.817 9.80035 17.5985C9.63245 17.3681 9.43932 17.1599 9.17119 17.0039L8.81926 17.609L8.46732 18.2141C8.50876 18.2382 8.56676 18.2828 8.66896 18.423C8.77978 18.5751 8.90514 18.7854 9.10458 19.1224L9.70697 18.7658ZM7.34048 17.4088L7.32842 18.1087C7.73116 18.1157 7.98542 18.1208 8.17905 18.1422C8.3597 18.1622 8.42819 18.1914 8.46732 18.2141L8.81926 17.609L9.17119 17.0039C8.90076 16.8466 8.61961 16.7824 8.33313 16.7507C8.05963 16.7204 7.72928 16.7154 7.35254 16.7089L7.34048 17.4088ZM12.693 18.7658L13.2954 19.1224C13.4948 18.7854 13.6202 18.5751 13.731 18.423C13.8332 18.2828 13.8912 18.2382 13.9327 18.2141L13.5807 17.609L13.2288 17.0039C12.9607 17.1599 12.7675 17.3681 12.5996 17.5985C12.4403 17.817 12.2766 18.0951 12.0906 18.4093L12.693 18.7658ZM15.0595 17.4088L15.0474 16.7089C14.6707 16.7154 14.3404 16.7204 14.0669 16.7507C13.7804 16.7824 13.4992 16.8466 13.2288 17.0039L13.5807 17.609L13.9327 18.2141C13.9718 18.1914 14.0403 18.1622 14.2209 18.1422C14.4146 18.1208 14.6688 18.1157 15.0716 18.1087L15.0595 17.4088Z" fill="#EF6520"/>
<path opacity="0.5" d="M7.53333 8.25H14.8667" stroke="white" stroke-width="1.4" stroke-linecap="round"/>
<path opacity="0.5" d="M7.53333 11.4583H12.575" stroke="white" stroke-width="1.4" stroke-linecap="round"/>
</svg>
