<svg width="23" height="22" viewBox="0 0 23 22" fill="none" xmlns="http://www.w3.org/2000/svg">
<path d="M17.7868 8.90048V8.25459C17.7868 4.70825 15.017 1.83337 11.6001 1.83337C8.18328 1.83337 5.41339 4.70825 5.41339 8.25459V8.90048C5.41339 9.6756 5.19234 10.4333 4.77808 11.0783L3.76293 12.6587C2.83568 14.1023 3.54356 16.0645 5.15626 16.521C9.37511 17.7152 13.8251 17.7152 18.044 16.521C19.6567 16.0645 20.3645 14.1023 19.4373 12.6587L18.4222 11.0783C18.0079 10.4333 17.7868 9.6756 17.7868 8.90048Z" stroke="#EF6520" stroke-width="1.4"/>
<path opacity="0.5" d="M7.4751 17.4167C8.07554 19.0188 9.69568 20.1667 11.6001 20.1667C13.5046 20.1667 15.1247 19.0188 15.7251 17.4167" stroke="white" stroke-width="1.4" stroke-linecap="round"/>
<path opacity="0.5" d="M11.6 5.5V9.16667" stroke="white" stroke-width="1.4" stroke-linecap="round"/>
</svg>
