<svg width="22" height="22" viewBox="0 0 22 22" fill="none" xmlns="http://www.w3.org/2000/svg">
<path d="M7.33325 16C4.74053 16 3.44416 16 2.63871 15.1945C1.83325 14.3891 1.83325 13.0927 1.83325 10.5C1.83325 7.90728 1.83325 6.61091 2.63871 5.80546C3.44416 5 4.74053 5 7.33325 5C9.92598 5 11.2223 5 12.0278 5.80546C12.8333 6.61091 12.8333 7.90728 12.8333 10.5" stroke="#EF6520" stroke-width="1.4" stroke-linecap="round" stroke-linejoin="round"/>
<path d="M9.16675 10.5C9.16675 13.0927 9.16675 14.3891 9.9722 15.1945C10.7777 16 12.074 16 14.6667 16C17.2595 16 18.5558 16 19.3613 15.1945C20.1667 14.3891 20.1667 13.0927 20.1667 10.5C20.1667 7.90728 20.1667 6.61091 19.3613 5.80546C18.5558 5 17.2595 5 14.6667 5" stroke="#5F6573" stroke-width="1.4" stroke-linecap="round" stroke-linejoin="round"/>
</svg>
