<svg width="22" height="22" viewBox="0 0 22 22" fill="none" xmlns="http://www.w3.org/2000/svg">
<path d="M11.5334 3V5.13333C11.5334 7.14466 11.5334 8.15032 12.0541 8.77516C12.5748 9.4 13.4128 9.4 15.0889 9.4H18.4667" stroke="#EF6520" stroke-width="1.4"/>
<path d="M13.7144 4.64292L13.2461 5.16322H13.2461L13.7144 4.64292ZM16.8814 7.49324L16.4131 8.01354L16.8814 7.49324ZM18.7232 9.52328L18.0837 9.80806V9.80806L18.7232 9.52328ZM3.93726 18.0627L4.43223 17.5678L4.43223 17.5678L3.93726 18.0627ZM18.0627 18.0627L17.5678 17.5678L17.5678 17.5678L18.0627 18.0627ZM12.6 19V18.3H9.4V19V19.7H12.6V19ZM3 12.6H3.7V9.4H3H2.3V12.6H3ZM19 12.2503H18.3V12.6H19H19.7V12.2503H19ZM13.7144 4.64292L13.2461 5.16322L16.4131 8.01354L16.8814 7.49324L17.3496 6.97293L14.1826 4.12261L13.7144 4.64292ZM19 12.2503H19.7C19.7 10.9085 19.7141 10.0277 19.3626 9.23849L18.7232 9.52328L18.0837 9.80806C18.2859 10.2619 18.3 10.7848 18.3 12.2503H19ZM16.8814 7.49324L16.4131 8.01354C17.5024 8.99392 17.8816 9.35423 18.0837 9.80806L18.7232 9.52328L19.3626 9.23849C19.0112 8.44929 18.347 7.87058 17.3496 6.97293L16.8814 7.49324ZM9.42383 3V3.7C10.6968 3.7 11.1523 3.71081 11.5566 3.86595L11.8074 3.21241L12.0582 2.55888C11.3554 2.28919 10.5908 2.3 9.42383 2.3V3ZM13.7144 4.64292L14.1826 4.12261C13.3194 3.34572 12.7609 2.82853 12.0582 2.55888L11.8074 3.21241L11.5566 3.86595C11.961 4.02113 12.3047 4.316 13.2461 5.16322L13.7144 4.64292ZM9.4 19V18.3C7.87172 18.3 6.79592 18.2985 5.982 18.1891C5.18822 18.0824 4.74912 17.8847 4.43223 17.5678L3.93726 18.0627L3.44228 18.5577C4.06265 19.1781 4.84643 19.449 5.79546 19.5766C6.72435 19.7015 7.91129 19.7 9.4 19.7V19ZM3 12.6H2.3C2.3 14.0887 2.29851 15.2757 2.4234 16.2045C2.55099 17.1536 2.82192 17.9373 3.44228 18.5577L3.93726 18.0627L4.43223 17.5678C4.11534 17.2509 3.91764 16.8118 3.81092 16.018C3.70149 15.2041 3.7 14.1283 3.7 12.6H3ZM12.6 19V19.7C14.0887 19.7 15.2757 19.7015 16.2045 19.5766C17.1536 19.449 17.9373 19.1781 18.5577 18.5577L18.0627 18.0627L17.5678 17.5678C17.2509 17.8847 16.8118 18.0824 16.018 18.1891C15.2041 18.2985 14.1283 18.3 12.6 18.3V19ZM19 12.6H18.3C18.3 14.1283 18.2985 15.2041 18.1891 16.018C18.0824 16.8118 17.8847 17.2509 17.5678 17.5678L18.0627 18.0627L18.5577 18.5577C19.1781 17.9373 19.449 17.1536 19.5766 16.2045C19.7015 15.2757 19.7 14.0887 19.7 12.6H19ZM3 9.4H3.7C3.7 7.87172 3.70149 6.79592 3.81092 5.982C3.91764 5.18822 4.11534 4.74912 4.43223 4.43223L3.93726 3.93726L3.44228 3.44228C2.82192 4.06265 2.55099 4.84643 2.4234 5.79546C2.29851 6.72435 2.3 7.91129 2.3 9.4H3ZM9.42383 3V2.3C7.92712 2.3 6.73444 2.29853 5.80183 2.42334C4.84961 2.55079 4.0632 2.82137 3.44228 3.44228L3.93726 3.93726L4.43223 4.43223C4.74858 4.11589 5.18901 3.91784 5.98755 3.81097C6.80569 3.70147 7.88767 3.7 9.42383 3.7V3Z" fill="#5F6573"/>
<path d="M6.20007 12.6H12.6001" stroke="#EF6520" stroke-width="1.4" stroke-linecap="round"/>
<path d="M6.20007 15.8H11.5334" stroke="#EF6520" stroke-width="1.4" stroke-linecap="round"/>
</svg>
