<svg width="188" height="40" viewBox="0 0 188 40" fill="none" xmlns="http://www.w3.org/2000/svg">
<path d="M38.5331 24.2937C35.9204 34.7731 25.3066 41.1507 14.8259 38.5374C4.34962 35.9248 -2.02799 25.3103 0.5859 14.8315C3.19734 4.35093 13.8112 -2.02729 24.2888 0.585371C34.7687 3.19803 41.1457 13.8137 38.5331 24.2937Z" fill="#F7931A"/>
<path d="M28.1809 16.7748C28.5702 14.1719 26.5884 12.7727 23.8786 11.8393L24.7576 8.31332L22.6114 7.77844L21.7556 11.2115C21.1913 11.0709 20.6118 10.9382 20.036 10.8068L20.8979 7.35115L18.7529 6.81627L17.8732 10.341C17.4062 10.2346 16.9477 10.1295 16.5027 10.0188L16.5052 10.0078L13.5453 9.26877L12.9743 11.5611C12.9743 11.5611 14.5668 11.9261 14.5331 11.9487C15.4024 12.1657 15.5595 12.7409 15.5332 13.1969L14.5319 17.2137C14.5918 17.229 14.6695 17.251 14.755 17.2853C14.6835 17.2675 14.6071 17.248 14.5283 17.229L13.1247 22.856C13.0184 23.12 12.7488 23.5162 12.1412 23.3658C12.1626 23.397 10.5811 22.9764 10.5811 22.9764L9.51566 25.4332L12.3087 26.1294C12.8283 26.2596 13.3375 26.396 13.8387 26.5243L12.9505 30.0906L15.0943 30.6255L15.974 27.0971C16.5596 27.256 17.1281 27.4028 17.6844 27.5409L16.8078 31.0528L18.954 31.5877L19.8422 28.0281C23.502 28.7207 26.2541 28.4413 27.4125 25.1312C28.3459 22.466 27.366 20.9286 25.4404 19.926C26.8427 19.6027 27.8991 18.6802 28.1809 16.7748ZM23.2771 23.6513C22.6138 26.3165 18.1263 24.8757 16.6714 24.5144L17.85 19.7897C19.3049 20.1528 23.9703 20.8717 23.2771 23.6513ZM23.9409 16.7363C23.3358 19.1607 19.6008 17.9289 18.3892 17.627L19.4577 13.3418C20.6693 13.6438 24.5712 14.2074 23.9409 16.7363Z" fill="white"/>
<path d="M57.3218 11.838C58.9081 11.838 60.2786 12.1223 61.4303 12.6804C62.5874 13.244 63.5423 14.0032 64.3082 14.9581C65.0638 15.9178 65.6262 17.0395 65.9893 18.3251C66.3499 19.6143 66.5309 21.0001 66.5309 22.4837C66.5309 24.7626 66.1134 26.9156 65.2704 28.945C64.4274 30.9776 63.2837 32.7406 61.8288 34.2443C60.3752 35.7463 58.6587 36.9304 56.6793 37.8051C54.703 38.6805 52.5543 39.1182 50.2473 39.1182C49.949 39.1182 49.4245 39.1096 48.6836 39.0943C47.9427 39.079 47.0912 39.0026 46.1376 38.8737C45.1778 38.7398 44.1631 38.5417 43.0915 38.2764C42.0205 38.016 41.0033 37.6511 40.0454 37.1877L48.6108 1.19727L56.2826 0.00831032L53.2157 12.78C53.8722 12.4842 54.5337 12.2549 55.1939 12.0881C55.8547 11.9236 56.5638 11.838 57.3218 11.838ZM50.8867 33.0321C52.042 33.0321 53.1307 32.7479 54.1534 32.1898C55.1792 31.6311 56.0643 30.8767 56.8058 29.9372C57.5473 28.9933 58.1342 27.9303 58.5621 26.7426C58.99 25.5548 59.2064 24.3157 59.2064 23.0265C59.2064 21.4427 58.9417 20.2072 58.4141 19.3141C57.8866 18.4247 56.9104 17.9772 55.4928 17.9772C55.0282 17.9772 54.4297 18.0659 53.6876 18.2242C52.9431 18.3923 52.2768 18.7414 51.6795 19.2665L48.414 32.8298C48.6108 32.8647 48.7851 32.8977 48.9336 32.9288C49.0791 32.9625 49.2399 32.9863 49.4 33.0028C49.5694 33.0218 49.7631 33.0315 49.9973 33.0315C50.2314 33.0315 50.5242 33.0321 50.8867 33.0321Z" fill="white"/>
<path d="M74.4887 38.4262H67.1611L73.3492 12.387H80.7269L74.4887 38.4262ZM78.0543 9.21437C77.0316 9.21437 76.1043 8.90995 75.2815 8.29988C74.452 7.69348 74.0412 6.76003 74.0412 5.50199C74.0412 4.81001 74.1818 4.16082 74.4606 3.5483C74.7436 2.93701 75.1134 2.41069 75.5768 1.96322C76.0395 1.51942 76.5756 1.16487 77.1845 0.89774C77.797 0.634884 78.4486 0.503456 79.1431 0.503456C80.1651 0.503456 81.0876 0.807881 81.9134 1.41795C82.7362 2.03108 83.1501 2.96452 83.1501 4.21583C83.1501 4.91026 83.0101 5.5619 82.7289 6.17319C82.4495 6.78448 82.0797 7.31081 81.6163 7.75827C81.1573 8.20268 80.6163 8.55601 80.0086 8.8207C79.3955 9.08783 78.7463 9.21437 78.0543 9.21437Z" fill="white"/>
<path d="M87.1473 5.90056L94.8221 4.71159L92.9375 12.387H101.157L99.6727 18.4253H91.5028L89.3266 27.5336C89.1261 28.2928 89.0124 29.0019 88.9806 29.6609C88.9445 30.3229 89.0283 30.8914 89.2263 31.37C89.4232 31.8499 89.7771 32.2197 90.2906 32.4814C90.8016 32.7473 91.5333 32.8812 92.4931 32.8812C93.2835 32.8812 94.0537 32.806 94.7983 32.6568C95.5385 32.5101 96.2886 32.3059 97.0478 32.0388L97.5943 37.6847C96.604 38.0478 95.5318 38.3602 94.3765 38.623C93.2193 38.8895 91.8494 39.0179 90.2661 39.0179C87.9897 39.0179 86.2249 38.6799 84.9674 38.0068C83.7119 37.3289 82.8243 36.4028 82.293 35.2304C81.7692 34.0622 81.535 32.7155 81.6005 31.1983C81.6683 29.6774 81.8975 28.0788 82.293 26.3954L87.1473 5.90056Z" fill="white"/>
<path d="M100.834 28.0312C100.834 25.7883 101.197 23.6733 101.922 21.6933C102.647 19.7115 103.69 17.9785 105.044 16.4912C106.393 15.0113 108.037 13.8388 109.972 12.9781C111.897 12.1223 114.053 11.6907 116.429 11.6907C117.917 11.6907 119.245 11.8313 120.414 12.1131C121.588 12.3974 122.649 12.7648 123.61 13.2257L121.083 18.9718C120.422 18.7041 119.737 18.4681 119.029 18.2542C118.32 18.0359 117.454 17.9308 116.43 17.9308C113.984 17.9308 112.051 18.7738 110.612 20.4542C109.178 22.1359 108.456 24.3995 108.456 27.2389C108.456 28.9218 108.819 30.2826 109.548 31.3236C110.273 32.3646 111.612 32.8824 113.557 32.8824C114.517 32.8824 115.443 32.7821 116.33 32.5865C117.223 32.3885 118.013 32.1391 118.708 31.8444L119.255 37.7348C118.328 38.0943 117.306 38.4189 116.185 38.7031C115.061 38.9776 113.724 39.12 112.173 39.12C110.126 39.12 108.393 38.8205 106.975 38.2306C105.557 37.6315 104.385 36.8362 103.462 35.8288C102.534 34.819 101.868 33.6398 101.456 32.2864C101.044 30.9342 100.834 29.5135 100.834 28.0312Z" fill="white"/>
<path d="M133.384 39.1188C131.635 39.1188 130.116 38.8523 128.827 38.3247C127.542 37.7972 126.478 37.0569 125.636 36.0972C124.793 35.1423 124.162 34.0108 123.73 32.7069C123.298 31.4037 123.09 29.9604 123.09 28.379C123.09 26.3953 123.409 24.4123 124.052 22.4348C124.693 20.453 125.643 18.6723 126.901 17.0896C128.15 15.5046 129.69 14.2086 131.503 13.1982C133.314 12.1944 135.397 11.6895 137.737 11.6895C139.454 11.6895 140.965 11.9566 142.272 12.4842C143.572 13.0105 144.643 13.7569 145.49 14.7117C146.327 15.6715 146.963 16.7981 147.391 18.1038C147.822 19.4046 148.035 20.8515 148.035 22.4342C148.035 24.4117 147.721 26.3947 147.097 28.3784C146.473 30.3522 145.547 32.1372 144.325 33.7235C143.104 35.3062 141.579 36.6015 139.746 37.6077C137.916 38.6139 135.793 39.1188 133.384 39.1188ZM137.046 17.9302C135.96 17.9302 134.999 18.2456 134.177 18.8685C133.352 19.4987 132.659 20.291 132.1 21.2464C131.535 22.2062 131.116 23.2527 130.833 24.3903C130.553 25.5304 130.415 26.6081 130.415 27.632C130.415 29.2843 130.682 30.5711 131.206 31.4972C131.737 32.4184 132.691 32.8818 134.078 32.8818C135.168 32.8818 136.123 32.5688 136.951 31.9392C137.771 31.3138 138.465 30.521 139.028 29.5637C139.589 28.6088 140.011 27.5592 140.294 26.4198C140.571 25.2834 140.712 24.1996 140.712 23.1775C140.712 21.5295 140.447 20.2396 139.918 19.3148C139.39 18.3935 138.432 17.9302 137.046 17.9302Z" fill="white"/>
<path d="M156.022 38.4262H148.689L154.877 12.387H162.258L156.022 38.4262ZM159.582 9.21437C158.56 9.21437 157.634 8.90995 156.812 8.29988C155.987 7.69348 155.572 6.76003 155.572 5.50199C155.572 4.81001 155.715 4.16082 155.994 3.5483C156.273 2.93701 156.646 2.41069 157.109 1.96322C157.569 1.51942 158.11 1.16487 158.718 0.89774C159.327 0.634884 159.979 0.503456 160.67 0.503456C161.695 0.503456 162.621 0.807881 163.445 1.41795C164.269 2.03108 164.685 2.96452 164.685 4.21583C164.685 4.91026 164.538 5.5619 164.261 6.17319C163.984 6.78448 163.611 7.31081 163.15 7.75827C162.685 8.20268 162.151 8.55601 161.542 8.8207C160.928 9.08783 160.278 9.21437 159.582 9.21437Z" fill="white"/>
<path d="M167.536 13.5735C168.092 13.4109 168.713 13.2153 169.389 13.0025C170.067 12.7898 170.824 12.5918 171.67 12.4133C172.507 12.2293 173.451 12.0801 174.49 11.9646C175.529 11.8466 176.712 11.7891 178.027 11.7891C181.891 11.7891 184.556 12.9145 186.026 15.1586C187.496 17.4026 187.75 20.4738 186.796 24.3665L183.426 38.4262H176.05L179.317 24.6623C179.516 23.8029 179.672 22.9721 179.788 22.1603C179.905 21.3559 179.898 20.6468 179.762 20.033C179.632 19.4266 179.325 18.9302 178.848 18.5457C178.365 18.1674 177.634 17.9772 176.644 17.9772C175.688 17.9772 174.716 18.0799 173.724 18.278L168.921 38.4256H161.542L167.536 13.5735Z" fill="white"/>
</svg>
